<?xml version="1.0" encoding="UTF-8"?><svg id="Layer_1" xmlns="http://www.w3.org/2000/svg" viewBox="0 0 154 149"><defs><style>.cls-1{fill:none;stroke:#cbebdb;stroke-miterlimit:10;stroke-width:14px;}.cls-2{fill:#cbebdb;}</style></defs><path class="cls-1" d="M77.39,44.66c-12.08,0-25.51,9.71-28.89,21.78-3.4,12.14,2.79,25.06,13.61,31.11,4.65,2.6,8.56,3.95,17.24,3.95"/><path class="cls-2" d="M59.46,44.11s-5.23,7.3-10.49,9.19c0,0-9.05-9.02-3.94-13.97,0,0,4.98-4.97,14.43,4.78Z"/><path class="cls-2" d="M48.53,92.65s8.02,4.31,10.6,9.35c0,0-7.88,10.27-13.53,5.78,0,0-5.65-4.36,2.92-15.13Z"/><path class="cls-2" d="M43.34,82.03s-2.1,9.22-17.96-.73c0,0-10.1-6.84-.91-13.62,0,0,13.03-9.89,17.93-2.81,0,0,2.14,14.25,.94,17.16Z"/><path class="cls-2" d="M111.21,42.16h-24.19c-3.22,0-3.22,5,0,5h24.19c3.22,0,3.22-5,0-5h0Z"/><path class="cls-2" d="M127.5,55.82h-40.47c-3.22,0-3.22,5,0,5h40.47c3.22,0,3.22-5,0-5h0Z"/><path class="cls-2" d="M134.89,70.47h-47.86c-3.22,0-3.22,5,0,5h47.86c3.22,0,3.22-5,0-5h0Z"/><path class="cls-2" d="M109.89,98.61h-22.86c-3.22,0-3.22,5,0,5h22.86c3.22,0,3.22-5,0-5h0Z"/><path class="cls-2" d="M128.38,84.94h-41.35c-3.22,0-3.22,5,0,5h41.35c3.22,0,3.22-5,0-5h0Z"/></svg>